<svg id="Logo" xmlns="http://www.w3.org/2000/svg" viewBox="0 0 200 45.09"><defs><style>.cls-1{fill:#005496;}</style></defs><title>freseniuskc_logo</title><g id="Icon"><polygon class="cls-1" points="28.89 4.97 0 0 6.04 9.71 28.89 14.7 51.71 9.71 57.79 0 28.89 4.97"/><polygon class="cls-1" points="28.89 45.09 35.1 35.14 28.89 36.83 22.68 35.14 28.89 45.09"/><polygon class="cls-1" points="11.34 18.55 28.89 22.25 46.44 18.55 40.88 27.43 28.89 30.51 16.89 27.43 11.34 18.55"/></g><g id="FKC"><path class="cls-1" d="M169.55,23.3c3.49,0,5.66-1.47,5.66-4.47,0-2.74-1.85-3.72-4.93-4.43-1.93-.46-2.44-0.72-2.44-1.35s0.34-1,1.6-1a6,6,0,0,1,3.66,1.29L175,10.76A8,8,0,0,0,169.6,9c-3.14,0-5.3,1.69-5.3,4.29,0,2.76,1.67,3.64,4.77,4.35,2.11,0.5,2.61.83,2.61,1.49s-0.56,1.09-2,1.09a7,7,0,0,1-3.93-1.41l-1.89,2.56a8.91,8.91,0,0,0,5.71,2" transform="translate(0 -0.49)"/><polygon class="cls-1" points="72.01 11.78 72.01 13.93 76.92 13.93 76.92 17.01 72.01 17.01 72.01 22.6 68.51 22.6 68.51 8.69 78.88 8.69 78.88 11.78 72.01 11.78"/><path class="cls-1" d="M86.45,12.17H83.69v3.22h2.72c1.27,0,1.83-.58,1.83-1.65s-0.56-1.57-1.79-1.57M88,23.08l-2.35-4.79h-2v4.79H80.23V9.17h6.32c3,0,5.21,1.31,5.21,4.49a4.06,4.06,0,0,1-2.57,4.07l2.74,5.34H88Z" transform="translate(0 -0.49)"/><polygon class="cls-1" points="93.75 22.6 104.27 22.6 104.27 19.53 97.23 19.53 97.23 16.81 101.62 16.81 101.62 13.79 97.23 13.79 97.23 11.74 103.78 11.74 103.78 8.69 93.75 8.69 93.75 22.6"/><path class="cls-1" d="M110.67,23.3c3.49,0,5.66-1.47,5.66-4.47,0-2.74-1.85-3.72-4.92-4.43C109.48,13.94,109,13.68,109,13s0.34-1,1.61-1a6,6,0,0,1,3.66,1.29l1.89-2.61A8.06,8.06,0,0,0,110.73,9c-3.14,0-5.3,1.69-5.3,4.29,0,2.76,1.67,3.64,4.77,4.35,2.11,0.5,2.6.83,2.6,1.49s-0.56,1.09-2,1.09a7,7,0,0,1-3.94-1.41L105,21.33a8.9,8.9,0,0,0,5.71,2" transform="translate(0 -0.49)"/><polygon class="cls-1" points="118.21 22.6 128.72 22.6 128.72 19.53 121.69 19.53 121.69 16.81 126.07 16.81 126.07 13.79 121.69 13.79 121.69 11.74 128.24 11.74 128.24 8.69 118.21 8.69 118.21 22.6"/><polygon class="cls-1" points="139.38 22.6 142.31 22.6 142.31 8.69 138.93 8.69 138.93 16.28 133.56 8.69 130.4 8.69 130.4 22.6 133.78 22.6 133.78 14.63 139.38 22.6"/><rect class="cls-1" x="144.83" y="8.69" width="3.55" height="13.91"/><path class="cls-1" d="M156.62,23.3c3.5,0,6-1.95,6-6.22V9.17H159v7.91c0,1.89-.8,3-2.38,3s-2.4-1.17-2.4-3V9.17H150.7v7.91c0,4.29,2.47,6.22,5.92,6.22" transform="translate(0 -0.49)"/><path class="cls-1" d="M157.53,34.87l3.19-1.31a5.24,5.24,0,0,0-5.5-3.75c-3.71,0-6.28,2.78-6.28,7.16,0,4.21,2.28,7.17,6.23,7.17a5.78,5.78,0,0,0,5.57-3.43l-3-1.63C157,40.37,156.46,41,155.22,41c-1.8,0-2.66-1.76-2.66-4s0.86-4,2.62-4c1.27,0,1.84.74,2.34,1.91" transform="translate(0 -0.49)"/><path class="cls-1" d="M166.26,38.34H169l-1.37-4.48Zm4.48,5.57-0.8-2.66h-4.59l-0.81,2.66h-3.73L165.93,30h3.49l5.12,13.88h-3.8Z" transform="translate(0 -0.49)"/><path class="cls-1" d="M182.11,33h-2.76v3.22h2.72c1.27,0,1.83-.57,1.83-1.65A1.5,1.5,0,0,0,182.11,33m1.55,10.89-2.34-4.78h-2v4.78H175.9V30h6.31c3,0,5.2,1.31,5.2,4.48a4.05,4.05,0,0,1-2.56,4.07l2.75,5.33h-3.93Z" transform="translate(0 -0.49)"/><polygon class="cls-1" points="189.49 43.43 200 43.43 200 40.37 192.97 40.37 192.97 37.65 197.35 37.65 197.35 34.63 192.97 34.63 192.97 32.58 199.52 32.58 199.52 29.52 189.49 29.52 189.49 43.43"/><path class="cls-1" d="M76.75,43.79l-2.9-5.91-1.43,1.72v4.18H68.5V29.92h3.92v1.63c0,1.17,0,2.42-.06,3.43,0.57-.91,1.78-2.52,2.68-3.65l1.11-1.41h4.68l-4.18,4.9,4.66,9H76.75Z" transform="translate(0 -0.49)"/><path class="cls-1" d="M93.5,43.79H89V29.92h4.86c4.36,0,7.13,1.64,7.13,6.86S98.41,43.79,93.5,43.79Zm0.34-10.58h-1V40.5h0.83c2.4,0,3.33-.91,3.33-3.67C97,34.28,96.23,33.21,93.83,33.21Z" transform="translate(0 -0.49)"/><path class="cls-1" d="M137.6,38.62v5.17h-3.88V38.68l-5.13-8.76H133l1.07,2.1a28,28,0,0,1,1.59,3.59A28.36,28.36,0,0,1,137.26,32l1.07-2.1h4.4Z" transform="translate(0 -0.49)"/><rect class="cls-1" x="82.87" y="29.55" width="3.55" height="13.88"/><polygon class="cls-1" points="117.23 43.34 127.75 43.34 127.75 40.28 120.71 40.28 120.71 37.56 125.1 37.56 125.1 34.54 120.71 34.54 120.71 32.49 127.26 32.49 127.26 29.43 117.23 29.43 117.23 43.34"/><polygon class="cls-1" points="111.85 43.34 114.78 43.34 114.78 29.43 111.4 29.43 111.4 37.02 106.03 29.43 102.88 29.43 102.88 43.34 106.25 43.34 106.25 35.37 111.85 43.34"/></g></svg>