<?xml version="1.0" encoding="UTF-8"?>
<svg width="285px" height="37px" viewBox="0 0 285 37" version="1.1" xmlns="http://www.w3.org/2000/svg" xmlns:xlink="http://www.w3.org/1999/xlink">
    <!-- Generator: Sketch 55.2 (78181) - https://sketchapp.com -->
    <title>app logo for export</title>
    <desc>Created with Sketch.</desc>
    <g id="Consent-App" stroke="none" stroke-width="1" fill="none" fill-rule="evenodd">
        <g id="02-Consent-App--Clinic" transform="translate(-836.000000, -23.000000)" fill-rule="nonzero">
            <g id="app-logo-for-export" transform="translate(836.000000, 23.000000)">
                <g id="Header-App-title">
                    <path d="M10.7212,22.9196 C10.7212,23.7166707 10.5970679,24.3993972 10.3488,24.9678 C10.1005321,25.5362028 9.75426889,26.0033315 9.31,26.3692 C8.86573111,26.7350685 8.33980304,27.0029325 7.7322,27.1728 C7.12459696,27.3426675 6.46800353,27.4276 5.7624,27.4276 L2.744,27.4276 L2.744,32.2884 L0,32.2884 L0,18.5684 L5.9976,18.5684 C6.63786987,18.5684 7.24546379,18.6565991 7.8204,18.833 C8.39533621,19.0094009 8.89839784,19.2805315 9.3296,19.6464 C9.76080216,20.0122685 10.1005321,20.4663306 10.3488,21.0086 C10.5970679,21.5508694 10.7212,22.187863 10.7212,22.9196 Z M7.8988,22.9784 C7.8988,22.3773303 7.71913513,21.9363347 7.3598,21.6554 C7.00046487,21.3744653 6.5137364,21.234 5.8996,21.234 L2.744,21.234 L2.744,24.762 L5.9388,24.762 C7.2454732,24.762 7.8988,24.1674726 7.8988,22.9784 Z M17.8164,32.2884 L17.8164,31.6024 C17.5681321,31.8637346 17.2414687,32.0793325 16.8364,32.2492 C16.4313313,32.4190675 15.9870691,32.504 15.5036,32.504 C15.0201309,32.504 14.5497356,32.4288674 14.0924,32.2786 C13.6350644,32.1283326 13.2267351,31.9029348 12.8674,31.6024 C12.5080649,31.3018652 12.2173344,30.9229356 11.9952,30.4656 C11.7730656,30.0082644 11.662,29.4660031 11.662,28.8388 C11.662,28.2769305 11.7697989,27.7804022 11.9854,27.3492 C12.2010011,26.9179978 12.4982648,26.5619347 12.8772,26.281 C13.2561352,26.0000653 13.6971308,25.7877341 14.2002,25.644 C14.7032692,25.5002659 15.2487971,25.4284 15.8368,25.4284 C16.3072024,25.4284 16.6991984,25.4708662 17.0128,25.5558 C17.3264016,25.6407338 17.5942656,25.7354661 17.8164,25.84 L17.8164,25.3304 C17.8164,24.9645315 17.6955345,24.6542013 17.4538,24.3994 C17.2120655,24.1445987 16.8429358,24.0172 16.3464,24.0172 C16.0327984,24.0172 15.7551345,24.0302665 15.5134,24.0564 C15.2716655,24.0825335 15.0430011,24.1217331 14.8274,24.174 C14.6117989,24.2262669 14.3994677,24.2948662 14.1904,24.3798 C13.9813323,24.4647338 13.7592012,24.5725327 13.524,24.7032 L12.4852,22.8216 C12.7857348,22.6517325 13.0764653,22.5014673 13.3574,22.3708 C13.6383347,22.2401327 13.9323318,22.1323338 14.2394,22.0474 C14.5464682,21.9624662 14.869865,21.8971336 15.2096,21.8514 C15.549335,21.8056664 15.9282646,21.7828 16.3464,21.7828 C16.9736031,21.7828 17.5419975,21.8611992 18.0516,22.018 C18.5612025,22.1748008 18.9989315,22.4067318 19.3648,22.7138 C19.7306685,23.0208682 20.0148657,23.3997977 20.2174,23.8506 C20.4199343,24.3014023 20.5212,24.8142638 20.5212,25.3892 L20.5212,32.2884 L17.8164,32.2884 Z M17.8164,27.9764 C17.5811988,27.8326659 17.329668,27.724867 17.0618,27.653 C16.793932,27.581133 16.4182691,27.5452 15.9348,27.5452 C15.4251975,27.5452 15.036468,27.6562656 14.7686,27.8784 C14.500732,28.1005344 14.3668,28.4206646 14.3668,28.8388 C14.3668,29.2046685 14.4843988,29.5247986 14.7196,29.7992 C14.9548012,30.0736014 15.3598638,30.2108 15.9348,30.2108 C16.3790689,30.2108 16.7677983,30.1160676 17.101,29.9266 C17.4342017,29.7371324 17.6726659,29.5182679 17.8164,29.27 L17.8164,27.9764 Z M28.7924,31.8768 C28.5702656,32.0597342 28.2697352,32.2099994 27.8908,32.3276 C27.5118648,32.4452006 27.1133354,32.504 26.6952,32.504 C26.2770646,32.504 25.898135,32.4288674 25.5584,32.2786 C25.218665,32.1283326 24.9312012,31.9160014 24.696,31.6416 C24.4607988,31.3671986 24.2778673,31.0405352 24.1472,30.6616 C24.0165327,30.2826648 23.9512,29.8645356 23.9512,29.4072 L23.9512,24.5464 L22.2264,24.5464 L22.2264,21.9984 L23.9512,21.9984 L23.9512,19.3524 L26.656,18 L26.656,21.9984 L29.1256,21.9984 L29.1256,24.5464 L26.656,24.5464 L26.656,28.682 C26.656,29.1785358 26.7409325,29.5084659 26.9108,29.6718 C27.0806675,29.8351342 27.3289317,29.9168 27.6556,29.9168 C27.9038679,29.9168 28.1357989,29.8580006 28.3514,29.7404 C28.5670011,29.6227994 28.844665,29.4202681 29.1844,29.1328 L28.7924,31.8768 Z M34.7116,19.6072 C34.7116,20.0253354 34.5580682,20.3879318 34.251,20.695 C33.9439318,21.0020682 33.5813354,21.1556 33.1632,21.1556 C32.7450646,21.1556 32.3824682,21.0020682 32.0754,20.695 C31.7683318,20.3879318 31.6148,20.0253354 31.6148,19.6072 C31.6148,19.1890646 31.7683318,18.8264682 32.0754,18.5194 C32.3824682,18.2123318 32.7450646,18.0588 33.1632,18.0588 C33.5813354,18.0588 33.9439318,18.2123318 34.251,18.5194 C34.5580682,18.8264682 34.7116,19.1890646 34.7116,19.6072 Z M31.8108,32.2884 L31.8108,21.9984 L34.5156,21.9984 L34.5156,32.2884 L31.8108,32.2884 Z M45.6288,27.1532 C45.6288,27.349201 45.6255334,27.5157993 45.619,27.653 C45.6124666,27.7902007 45.6026667,27.9110661 45.5896,28.0156 L39.4352,28.0156 C39.4613335,28.3684018 39.5397327,28.6689321 39.6704,28.9172 C39.8010673,29.1654679 39.964399,29.3647326 40.1604,29.515 C40.356401,29.6652674 40.5752655,29.776333 40.817,29.8482 C41.0587345,29.920067 41.3037321,29.956 41.552,29.956 C41.9309352,29.956 42.2706652,29.8906673 42.5712,29.76 C42.8717348,29.6293327 43.119999,29.4529344 43.316,29.2308 L45.2368,30.838 C44.8186646,31.373736 44.2731367,31.7853319 43.6002,32.0728 C42.9272633,32.3602681 42.2445368,32.504 41.552,32.504 C40.8071963,32.504 40.1375363,32.3766013 39.543,32.1218 C38.9484637,31.8669987 38.4421354,31.507669 38.024,31.0438 C37.6058646,30.579931 37.2824678,30.01807 37.0538,29.3582 C36.8251322,28.69833 36.7108,27.9633374 36.7108,27.1532 C36.7108,26.3691961 36.8283988,25.64727 37.0636,24.9874 C37.2988012,24.32753 37.6221979,23.7591357 38.0338,23.2822 C38.4454021,22.8052643 38.9288639,22.4361346 39.4842,22.1748 C40.0395361,21.9134654 40.6438634,21.7828 41.2972,21.7828 C41.9766701,21.7828 42.5875306,21.9232653 43.1298,22.2042 C43.6720694,22.4851347 44.1261315,22.8705975 44.492,23.3606 C44.8578685,23.8506025 45.138799,24.4222634 45.3348,25.0756 C45.530801,25.7289366 45.6288,26.421463 45.6288,27.1532 Z M43.0024,25.9772 C42.9762665,25.7419988 42.9240004,25.5166011 42.8456,25.301 C42.7671996,25.0853989 42.6528674,24.8894009 42.5026,24.713 C42.3523326,24.5365991 42.1661344,24.3961339 41.944,24.2916 C41.7218656,24.1870661 41.4605348,24.1348 41.16,24.1348 C40.6634642,24.1348 40.2714681,24.3111982 39.984,24.664 C39.6965319,25.0168018 39.5266669,25.4545307 39.4744,25.9772 L43.0024,25.9772 Z M53.998,32.2884 L53.998,26.722 C53.998,25.8073288 53.8477348,25.180135 53.5472,24.8404 C53.2466652,24.500665 52.8154695,24.3308 52.2536,24.3308 C51.6917305,24.3308 51.2572682,24.4973983 50.9502,24.8306 C50.6431318,25.1638017 50.4896,25.7746622 50.4896,26.6632 L50.4896,32.2884 L47.7848,32.2884 L47.7848,21.9984 L50.4896,21.9984 L50.4896,22.6844 C50.7248012,22.4361321 51.0481979,22.2238009 51.4598,22.0474 C51.8714021,21.8709991 52.3515973,21.7828 52.9004,21.7828 C54.2070732,21.7828 55.1674636,22.2041958 55.7816,23.047 C56.3957364,23.8898042 56.7028,25.0363927 56.7028,26.4868 L56.7028,32.2884 L53.998,32.2884 Z M64.8956,31.8768 C64.6734656,32.0597342 64.3729352,32.2099994 63.994,32.3276 C63.6150648,32.4452006 63.2165354,32.504 62.7984,32.504 C62.3802646,32.504 62.001335,32.4288674 61.6616,32.2786 C61.321865,32.1283326 61.0344012,31.9160014 60.7992,31.6416 C60.5639988,31.3671986 60.3810673,31.0405352 60.2504,30.6616 C60.1197327,30.2826648 60.0544,29.8645356 60.0544,29.4072 L60.0544,24.5464 L58.3296,24.5464 L58.3296,21.9984 L60.0544,21.9984 L60.0544,19.3524 L62.7592,18 L62.7592,21.9984 L65.2288,21.9984 L65.2288,24.5464 L62.7592,24.5464 L62.7592,28.682 C62.7592,29.1785358 62.8441325,29.5084659 63.014,29.6718 C63.1838675,29.8351342 63.4321317,29.9168 63.7588,29.9168 C64.0070679,29.9168 64.2389989,29.8580006 64.4546,29.7404 C64.6702011,29.6227994 64.947865,29.4202681 65.2876,29.1328 L64.8956,31.8768 Z M81.7908,22.5668 C81.5425321,22.0963976 81.2191353,21.7305346 80.8206,21.4692 C80.4220647,21.2078654 79.9092031,21.0772 79.282,21.0772 C78.7723975,21.0772 78.3150687,21.1849989 77.91,21.4006 C77.5049313,21.6162011 77.1652014,21.9167314 76.8908,22.3022 C76.6163986,22.6876686 76.4073341,23.1449974 76.2636,23.6742 C76.1198659,24.2034026 76.048,24.7881301 76.048,25.4284 C76.048,26.0425364 76.1198659,26.6141974 76.2636,27.1434 C76.4073341,27.6726026 76.6196653,28.133198 76.9006,28.5252 C77.1815347,28.917202 77.5245313,29.2242656 77.9296,29.4464 C78.3346687,29.6685344 78.7919975,29.7796 79.3016,29.7796 C79.9288031,29.7796 80.4416647,29.6424014 80.8402,29.368 C81.2387353,29.0935986 81.6209315,28.6493364 81.9868,28.0352 L84.2996,29.4072 C83.8291976,30.3872049 83.1791375,31.1483306 82.3494,31.6906 C81.5196625,32.2328694 80.4776063,32.504 79.2232,32.504 C78.3215955,32.504 77.504937,32.3374017 76.7732,32.0042 C76.041463,31.6709983 75.4110026,31.1973364 74.8818,30.5832 C74.3525974,29.9690636 73.9442681,29.2275377 73.6568,28.3586 C73.3693319,27.4896623 73.2256,26.5129388 73.2256,25.4284 C73.2256,24.3830614 73.3758652,23.4259377 73.6764,22.557 C73.9769348,21.6880623 74.395064,20.9432698 74.9308,20.3226 C75.466536,19.7019302 76.1067963,19.2184684 76.8516,18.8722 C77.5964037,18.5259316 78.4195955,18.3528 79.3212,18.3528 C79.9614699,18.3528 80.5429307,18.4279326 81.0656,18.5782 C81.5882693,18.7284674 82.0553979,18.937532 82.467,19.2054 C82.8786021,19.473268 83.2379318,19.7933981 83.545,20.1658 C83.8520682,20.5382019 84.1166656,20.9465311 84.3388,21.3908 L81.7908,22.5668 Z M95.0208,27.1532 C95.0208,27.9372039 94.9032012,28.65913 94.668,29.319 C94.4327988,29.97887 94.1094021,30.5439976 93.6978,31.0144 C93.2861979,31.4848024 92.7929362,31.8506654 92.218,32.112 C91.6430638,32.3733346 91.0224033,32.504 90.356,32.504 C89.6895967,32.504 89.0722028,32.3733346 88.5038,32.112 C87.9353972,31.8506654 87.4454021,31.4848024 87.0338,31.0144 C86.6221979,30.5439976 86.2988012,29.97887 86.0636,29.319 C85.8283988,28.65913 85.7108,27.9372039 85.7108,27.1532 C85.7108,26.3691961 85.8283988,25.64727 86.0636,24.9874 C86.2988012,24.32753 86.6221979,23.7591357 87.0338,23.2822 C87.4454021,22.8052643 87.9353972,22.4361346 88.5038,22.1748 C89.0722028,21.9134654 89.6895967,21.7828 90.356,21.7828 C91.0224033,21.7828 91.6430638,21.9134654 92.218,22.1748 C92.7929362,22.4361346 93.2861979,22.8052643 93.6978,23.2822 C94.1094021,23.7591357 94.4327988,24.32753 94.668,24.9874 C94.9032012,25.64727 95.0208,26.3691961 95.0208,27.1532 Z M92.2768,27.1532 C92.2768,26.3691961 92.1200016,25.7126026 91.8064,25.1834 C91.4927984,24.6541974 91.0093366,24.3896 90.356,24.3896 C89.7026634,24.3896 89.2224682,24.6509307 88.9154,25.1736 C88.6083318,25.6962693 88.4548,26.3561293 88.4548,27.1532 C88.4548,27.9502707 88.6083318,28.6068641 88.9154,29.123 C89.2224682,29.6391359 89.7026634,29.8972 90.356,29.8972 C90.6826683,29.8972 90.9668655,29.8220674 91.2086,29.6718 C91.4503345,29.5215326 91.6495992,29.3190013 91.8064,29.0642 C91.9632008,28.8093987 92.0807996,28.5154017 92.1592,28.1822 C92.2376004,27.8489983 92.2768,27.5060018 92.2768,27.1532 Z M103.3312,32.2884 L103.3312,26.722 C103.3312,25.8073288 103.180935,25.180135 102.8804,24.8404 C102.579865,24.500665 102.148669,24.3308 101.5868,24.3308 C101.024931,24.3308 100.590468,24.4973983 100.2834,24.8306 C99.9763318,25.1638017 99.8228,25.7746622 99.8228,26.6632 L99.8228,32.2884 L97.118,32.2884 L97.118,21.9984 L99.8228,21.9984 L99.8228,22.6844 C100.058001,22.4361321 100.381398,22.2238009 100.793,22.0474 C101.204602,21.8709991 101.684797,21.7828 102.2336,21.7828 C103.540273,21.7828 104.500664,22.2041958 105.1148,23.047 C105.728936,23.8898042 106.036,25.0363927 106.036,26.4868 L106.036,32.2884 L103.3312,32.2884 Z M116.6984,29.2896 C116.6984,29.8776029 116.587334,30.3773979 116.3652,30.789 C116.143066,31.2006021 115.842535,31.5337987 115.4636,31.7886 C115.084665,32.0434013 114.640403,32.2263328 114.1308,32.3374 C113.621197,32.4484672 113.078936,32.504 112.504,32.504 C111.680796,32.504 110.893537,32.3962011 110.1422,32.1806 C109.390863,31.9649989 108.740803,31.6742685 108.192,31.3084 L109.0936,29.2504 C109.642403,29.5509348 110.20753,29.7828659 110.789,29.9462 C111.37047,30.1095342 111.994397,30.1912 112.6608,30.1912 C113.196536,30.1912 113.559132,30.1258673 113.7486,29.9952 C113.938068,29.8645327 114.0328,29.6685346 114.0328,29.4072 C114.0328,29.1719988 113.925001,28.9825341 113.7094,28.8388 C113.493799,28.6950659 113.098536,28.5382675 112.5236,28.3684 C111.909464,28.1854658 111.350869,27.9992676 110.8478,27.8098 C110.344731,27.6203324 109.916802,27.3982013 109.564,27.1434 C109.211198,26.8885987 108.940068,26.5782685 108.7506,26.2124 C108.561132,25.8465315 108.4664,25.3892027 108.4664,24.8404 C108.4664,24.304664 108.567666,23.8440686 108.7702,23.4586 C108.972734,23.0731314 109.256932,22.7562679 109.6228,22.508 C109.988668,22.2597321 110.423131,22.0768006 110.9262,21.9592 C111.429269,21.8415994 111.98133,21.7828 112.5824,21.7828 C113.235737,21.7828 113.895597,21.8742658 114.562,22.0572 C115.228403,22.2401342 115.835997,22.4818652 116.3848,22.7824 L115.5224,24.9188 C115.012797,24.6443986 114.493403,24.4386007 113.9642,24.3014 C113.434997,24.1641993 112.954802,24.0956 112.5236,24.0956 C111.974797,24.0956 111.605668,24.1511328 111.4162,24.2622 C111.226732,24.3732672 111.132,24.5398656 111.132,24.762 C111.132,24.8665339 111.158133,24.9612662 111.2104,25.0462 C111.262667,25.1311338 111.363933,25.2160662 111.5142,25.301 C111.664467,25.3859338 111.880065,25.4806661 112.161,25.5852 C112.441935,25.6897339 112.811064,25.8138659 113.2684,25.9576 C113.725736,26.1144008 114.163465,26.2777325 114.5816,26.4476 C114.999735,26.6174675 115.365598,26.8265321 115.6792,27.0748 C115.992802,27.3230679 116.241066,27.6268649 116.424,27.9862 C116.606934,28.3455351 116.6984,28.7799975 116.6984,29.2896 Z M127.2824,27.1532 C127.2824,27.349201 127.279133,27.5157993 127.2726,27.653 C127.266067,27.7902007 127.256267,27.9110661 127.2432,28.0156 L121.0888,28.0156 C121.114933,28.3684018 121.193333,28.6689321 121.324,28.9172 C121.454667,29.1654679 121.617999,29.3647326 121.814,29.515 C122.010001,29.6652674 122.228865,29.776333 122.4706,29.8482 C122.712335,29.920067 122.957332,29.956 123.2056,29.956 C123.584535,29.956 123.924265,29.8906673 124.2248,29.76 C124.525335,29.6293327 124.773599,29.4529344 124.9696,29.2308 L126.8904,30.838 C126.472265,31.373736 125.926737,31.7853319 125.2538,32.0728 C124.580863,32.3602681 123.898137,32.504 123.2056,32.504 C122.460796,32.504 121.791136,32.3766013 121.1966,32.1218 C120.602064,31.8669987 120.095735,31.507669 119.6776,31.0438 C119.259465,30.579931 118.936068,30.01807 118.7074,29.3582 C118.478732,28.69833 118.3644,27.9633374 118.3644,27.1532 C118.3644,26.3691961 118.481999,25.64727 118.7172,24.9874 C118.952401,24.32753 119.275798,23.7591357 119.6874,23.2822 C120.099002,22.8052643 120.582464,22.4361346 121.1378,22.1748 C121.693136,21.9134654 122.297463,21.7828 122.9508,21.7828 C123.63027,21.7828 124.241131,21.9232653 124.7834,22.2042 C125.325669,22.4851347 125.779732,22.8705975 126.1456,23.3606 C126.511468,23.8506025 126.792399,24.4222634 126.9884,25.0756 C127.184401,25.7289366 127.2824,26.421463 127.2824,27.1532 Z M124.656,25.9772 C124.629867,25.7419988 124.5776,25.5166011 124.4992,25.301 C124.4208,25.0853989 124.306467,24.8894009 124.1562,24.713 C124.005933,24.5365991 123.819734,24.3961339 123.5976,24.2916 C123.375466,24.1870661 123.114135,24.1348 122.8136,24.1348 C122.317064,24.1348 121.925068,24.3111982 121.6376,24.664 C121.350132,25.0168018 121.180267,25.4545307 121.128,25.9772 L124.656,25.9772 Z M135.6516,32.2884 L135.6516,26.722 C135.6516,25.8073288 135.501335,25.180135 135.2008,24.8404 C134.900265,24.500665 134.469069,24.3308 133.9072,24.3308 C133.345331,24.3308 132.910868,24.4973983 132.6038,24.8306 C132.296732,25.1638017 132.1432,25.7746622 132.1432,26.6632 L132.1432,32.2884 L129.4384,32.2884 L129.4384,21.9984 L132.1432,21.9984 L132.1432,22.6844 C132.378401,22.4361321 132.701798,22.2238009 133.1134,22.0474 C133.525002,21.8709991 134.005197,21.7828 134.554,21.7828 C135.860673,21.7828 136.821064,22.2041958 137.4352,23.047 C138.049336,23.8898042 138.3564,25.0363927 138.3564,26.4868 L138.3564,32.2884 L135.6516,32.2884 Z M146.5492,31.8768 C146.327066,32.0597342 146.026535,32.2099994 145.6476,32.3276 C145.268665,32.4452006 144.870135,32.504 144.452,32.504 C144.033865,32.504 143.654935,32.4288674 143.3152,32.2786 C142.975465,32.1283326 142.688001,31.9160014 142.4528,31.6416 C142.217599,31.3671986 142.034667,31.0405352 141.904,30.6616 C141.773333,30.2826648 141.708,29.8645356 141.708,29.4072 L141.708,24.5464 L139.9832,24.5464 L139.9832,21.9984 L141.708,21.9984 L141.708,19.3524 L144.4128,18 L144.4128,21.9984 L146.8824,21.9984 L146.8824,24.5464 L144.4128,24.5464 L144.4128,28.682 C144.4128,29.1785358 144.497732,29.5084659 144.6676,29.6718 C144.837468,29.8351342 145.085732,29.9168 145.4124,29.9168 C145.660668,29.9168 145.892599,29.8580006 146.1082,29.7404 C146.323801,29.6227994 146.601465,29.4202681 146.9412,29.1328 L146.5492,31.8768 Z M165.6592,28.1332 C165.6592,28.7865366 165.554668,29.381064 165.3456,29.9168 C165.136532,30.452536 164.809869,30.9131314 164.3656,31.2986 C163.921331,31.6840686 163.362737,31.9813323 162.6898,32.1904 C162.016863,32.3994677 161.210005,32.504 160.2692,32.504 C159.119328,32.504 158.074005,32.2818689 157.1332,31.8376 C156.192395,31.3933311 155.460669,30.7857372 154.938,30.0148 L156.9176,28.2508 C157.401069,28.8126695 157.940064,29.2144655 158.5346,29.4562 C159.129136,29.6979345 159.759597,29.8188 160.426,29.8188 C161.249204,29.8188 161.853531,29.7012012 162.239,29.466 C162.624469,29.2307988 162.8172,28.8518693 162.8172,28.3292 C162.8172,28.1070656 162.778,27.9143342 162.6996,27.751 C162.6212,27.5876659 162.474201,27.4341341 162.2586,27.2904 C162.042999,27.1466659 161.732669,27.0094673 161.3276,26.8788 C160.922531,26.7481327 160.39987,26.6109341 159.7596,26.4672 C159.132397,26.3234659 158.554203,26.153601 158.025,25.9576 C157.495797,25.761599 157.041735,25.5133348 156.6628,25.2128 C156.283865,24.9122652 155.989868,24.5333356 155.7808,24.076 C155.571732,23.6186644 155.4672,23.0502701 155.4672,22.3708 C155.4672,21.7435969 155.594599,21.1817358 155.8494,20.6852 C156.104201,20.1886642 156.453731,19.7672684 156.898,19.421 C157.342269,19.0747316 157.861664,18.8101342 158.4562,18.6272 C159.050736,18.4442658 159.68773,18.3528 160.3672,18.3528 C161.438672,18.3528 162.376196,18.5422648 163.1798,18.9212 C163.983404,19.3001352 164.711863,19.8293299 165.3652,20.5088 L163.3856,22.4296 C162.941331,21.9722644 162.467669,21.6227345 161.9646,21.381 C161.461531,21.1392655 160.896403,21.0184 160.2692,21.0184 C159.903332,21.0184 159.596268,21.054333 159.348,21.1262 C159.099732,21.198067 158.897201,21.2927994 158.7404,21.4104 C158.583599,21.5280006 158.472534,21.6586659 158.4072,21.8024 C158.341866,21.9461341 158.3092,22.0963992 158.3092,22.2532 C158.3092,22.4753344 158.351666,22.6615326 158.4366,22.8118 C158.521534,22.9620674 158.668532,23.0959994 158.8776,23.2136 C159.086668,23.3312006 159.367598,23.4422661 159.7204,23.5468 C160.073202,23.6513339 160.523997,23.7689327 161.0728,23.8996 C161.621603,24.0302673 162.167131,24.1837991 162.7094,24.3602 C163.251669,24.5366009 163.741664,24.7815984 164.1794,25.0952 C164.617136,25.4088016 164.973199,25.8073309 165.2476,26.2908 C165.522001,26.7742691 165.6592,27.3883963 165.6592,28.1332 Z M173.5776,31.8768 C173.355466,32.0597342 173.054935,32.2099994 172.676,32.3276 C172.297065,32.4452006 171.898535,32.504 171.4804,32.504 C171.062265,32.504 170.683335,32.4288674 170.3436,32.2786 C170.003865,32.1283326 169.716401,31.9160014 169.4812,31.6416 C169.245999,31.3671986 169.063067,31.0405352 168.9324,30.6616 C168.801733,30.2826648 168.7364,29.8645356 168.7364,29.4072 L168.7364,24.5464 L167.0116,24.5464 L167.0116,21.9984 L168.7364,21.9984 L168.7364,19.3524 L171.4412,18 L171.4412,21.9984 L173.9108,21.9984 L173.9108,24.5464 L171.4412,24.5464 L171.4412,28.682 C171.4412,29.1785358 171.526132,29.5084659 171.696,29.6718 C171.865868,29.8351342 172.114132,29.9168 172.4408,29.9168 C172.689068,29.9168 172.920999,29.8580006 173.1366,29.7404 C173.352201,29.6227994 173.629865,29.4202681 173.9696,29.1328 L173.5776,31.8768 Z M181.888,32.2884 L181.888,31.6024 C181.639732,31.8637346 181.313069,32.0793325 180.908,32.2492 C180.502931,32.4190675 180.058669,32.504 179.5752,32.504 C179.091731,32.504 178.621336,32.4288674 178.164,32.2786 C177.706664,32.1283326 177.298335,31.9029348 176.939,31.6024 C176.579665,31.3018652 176.288934,30.9229356 176.0668,30.4656 C175.844666,30.0082644 175.7336,29.4660031 175.7336,28.8388 C175.7336,28.2769305 175.841399,27.7804022 176.057,27.3492 C176.272601,26.9179978 176.569865,26.5619347 176.9488,26.281 C177.327735,26.0000653 177.768731,25.7877341 178.2718,25.644 C178.774869,25.5002659 179.320397,25.4284 179.9084,25.4284 C180.378802,25.4284 180.770798,25.4708662 181.0844,25.5558 C181.398002,25.6407338 181.665866,25.7354661 181.888,25.84 L181.888,25.3304 C181.888,24.9645315 181.767135,24.6542013 181.5254,24.3994 C181.283665,24.1445987 180.914536,24.0172 180.418,24.0172 C180.104398,24.0172 179.826735,24.0302665 179.585,24.0564 C179.343265,24.0825335 179.114601,24.1217331 178.899,24.174 C178.683399,24.2262669 178.471068,24.2948662 178.262,24.3798 C178.052932,24.4647338 177.830801,24.5725327 177.5956,24.7032 L176.5568,22.8216 C176.857335,22.6517325 177.148065,22.5014673 177.429,22.3708 C177.709935,22.2401327 178.003932,22.1323338 178.311,22.0474 C178.618068,21.9624662 178.941465,21.8971336 179.2812,21.8514 C179.620935,21.8056664 179.999865,21.7828 180.418,21.7828 C181.045203,21.7828 181.613597,21.8611992 182.1232,22.018 C182.632803,22.1748008 183.070532,22.4067318 183.4364,22.7138 C183.802268,23.0208682 184.086466,23.3997977 184.289,23.8506 C184.491534,24.3014023 184.5928,24.8142638 184.5928,25.3892 L184.5928,32.2884 L181.888,32.2884 Z M181.888,27.9764 C181.652799,27.8326659 181.401268,27.724867 181.1334,27.653 C180.865532,27.581133 180.489869,27.5452 180.0064,27.5452 C179.496797,27.5452 179.108068,27.6562656 178.8402,27.8784 C178.572332,28.1005344 178.4384,28.4206646 178.4384,28.8388 C178.4384,29.2046685 178.555999,29.5247986 178.7912,29.7992 C179.026401,30.0736014 179.431464,30.2108 180.0064,30.2108 C180.450669,30.2108 180.839398,30.1160676 181.1726,29.9266 C181.505802,29.7371324 181.744266,29.5182679 181.888,29.27 L181.888,27.9764 Z M192.864,31.8768 C192.641866,32.0597342 192.341335,32.2099994 191.9624,32.3276 C191.583465,32.4452006 191.184935,32.504 190.7668,32.504 C190.348665,32.504 189.969735,32.4288674 189.63,32.2786 C189.290265,32.1283326 189.002801,31.9160014 188.7676,31.6416 C188.532399,31.3671986 188.349467,31.0405352 188.2188,30.6616 C188.088133,30.2826648 188.0228,29.8645356 188.0228,29.4072 L188.0228,24.5464 L186.298,24.5464 L186.298,21.9984 L188.0228,21.9984 L188.0228,19.3524 L190.7276,18 L190.7276,21.9984 L193.1972,21.9984 L193.1972,24.5464 L190.7276,24.5464 L190.7276,28.682 C190.7276,29.1785358 190.812532,29.5084659 190.9824,29.6718 C191.152268,29.8351342 191.400532,29.9168 191.7272,29.9168 C191.975468,29.9168 192.207399,29.8580006 192.423,29.7404 C192.638601,29.6227994 192.916265,29.4202681 193.256,29.1328 L192.864,31.8768 Z M201.7428,32.2884 L201.7428,31.6024 C201.507599,31.8506679 201.184202,32.0629991 200.7726,32.2394 C200.360998,32.4158009 199.880803,32.504 199.332,32.504 C198.01226,32.504 197.048603,32.0826042 196.441,31.2398 C195.833397,30.3969958 195.5296,29.2504073 195.5296,27.8 L195.5296,21.9984 L198.2344,21.9984 L198.2344,27.5648 C198.2344,28.0221356 198.2736,28.4043318 198.352,28.7114 C198.4304,29.0184682 198.541466,29.2634658 198.6852,29.4464 C198.828934,29.6293342 199.011866,29.7599996 199.234,29.8384 C199.456134,29.9168004 199.704399,29.956 199.9788,29.956 C200.540669,29.956 200.975132,29.7894017 201.2822,29.4562 C201.589268,29.1229983 201.7428,28.5121378 201.7428,27.6236 L201.7428,21.9984 L204.4476,21.9984 L204.4476,32.2884 L201.7428,32.2884 Z M215.208,29.2896 C215.208,29.8776029 215.096934,30.3773979 214.8748,30.789 C214.652666,31.2006021 214.352135,31.5337987 213.9732,31.7886 C213.594265,32.0434013 213.150003,32.2263328 212.6404,32.3374 C212.130797,32.4484672 211.588536,32.504 211.0136,32.504 C210.190396,32.504 209.403137,32.3962011 208.6518,32.1806 C207.900463,31.9649989 207.250403,31.6742685 206.7016,31.3084 L207.6032,29.2504 C208.152003,29.5509348 208.71713,29.7828659 209.2986,29.9462 C209.88007,30.1095342 210.503997,30.1912 211.1704,30.1912 C211.706136,30.1912 212.068732,30.1258673 212.2582,29.9952 C212.447668,29.8645327 212.5424,29.6685346 212.5424,29.4072 C212.5424,29.1719988 212.434601,28.9825341 212.219,28.8388 C212.003399,28.6950659 211.608136,28.5382675 211.0332,28.3684 C210.419064,28.1854658 209.860469,27.9992676 209.3574,27.8098 C208.854331,27.6203324 208.426402,27.3982013 208.0736,27.1434 C207.720798,26.8885987 207.449668,26.5782685 207.2602,26.2124 C207.070732,25.8465315 206.976,25.3892027 206.976,24.8404 C206.976,24.304664 207.077266,23.8440686 207.2798,23.4586 C207.482334,23.0731314 207.766532,22.7562679 208.1324,22.508 C208.498268,22.2597321 208.932731,22.0768006 209.4358,21.9592 C209.938869,21.8415994 210.49093,21.7828 211.092,21.7828 C211.745337,21.7828 212.405197,21.8742658 213.0716,22.0572 C213.738003,22.2401342 214.345597,22.4818652 214.8944,22.7824 L214.032,24.9188 C213.522397,24.6443986 213.003003,24.4386007 212.4738,24.3014 C211.944597,24.1641993 211.464402,24.0956 211.0332,24.0956 C210.484397,24.0956 210.115268,24.1511328 209.9258,24.2622 C209.736332,24.3732672 209.6416,24.5398656 209.6416,24.762 C209.6416,24.8665339 209.667733,24.9612662 209.72,25.0462 C209.772267,25.1311338 209.873533,25.2160662 210.0238,25.301 C210.174067,25.3859338 210.389665,25.4806661 210.6706,25.5852 C210.951535,25.6897339 211.320664,25.8138659 211.778,25.9576 C212.235336,26.1144008 212.673065,26.2777325 213.0912,26.4476 C213.509335,26.6174675 213.875198,26.8265321 214.1888,27.0748 C214.502402,27.3230679 214.750666,27.6268649 214.9336,27.9862 C215.116534,28.3455351 215.208,28.7799975 215.208,29.2896 Z M231.6916,32.2884 L229.2416,27.3492 L226.478,27.3492 L226.478,32.2884 L223.734,32.2884 L223.734,18.5684 L230.1236,18.5684 C230.76387,18.5684 231.371464,18.6565991 231.9464,18.833 C232.521336,19.0094009 233.024398,19.2805315 233.4556,19.6464 C233.886802,20.0122685 234.226532,20.4663306 234.4748,21.0086 C234.723068,21.5508694 234.8472,22.187863 234.8472,22.9196 C234.8472,23.9518718 234.628336,24.79793 234.1906,25.4578 C233.752864,26.11767 233.096271,26.617465 232.2208,26.9572 L234.8472,32.2884 L231.6916,32.2884 Z M232.0248,22.9784 C232.0248,22.3511969 231.851668,21.903668 231.5054,21.6358 C231.159132,21.367932 230.678936,21.234 230.0648,21.234 L226.478,21.234 L226.478,24.762 L230.0648,24.762 C231.371473,24.762 232.0248,24.1674726 232.0248,22.9784 Z M245.1764,27.1532 C245.1764,27.349201 245.173133,27.5157993 245.1666,27.653 C245.160067,27.7902007 245.150267,27.9110661 245.1372,28.0156 L238.9828,28.0156 C239.008933,28.3684018 239.087333,28.6689321 239.218,28.9172 C239.348667,29.1654679 239.511999,29.3647326 239.708,29.515 C239.904001,29.6652674 240.122865,29.776333 240.3646,29.8482 C240.606335,29.920067 240.851332,29.956 241.0996,29.956 C241.478535,29.956 241.818265,29.8906673 242.1188,29.76 C242.419335,29.6293327 242.667599,29.4529344 242.8636,29.2308 L244.7844,30.838 C244.366265,31.373736 243.820737,31.7853319 243.1478,32.0728 C242.474863,32.3602681 241.792137,32.504 241.0996,32.504 C240.354796,32.504 239.685136,32.3766013 239.0906,32.1218 C238.496064,31.8669987 237.989735,31.507669 237.5716,31.0438 C237.153465,30.579931 236.830068,30.01807 236.6014,29.3582 C236.372732,28.69833 236.2584,27.9633374 236.2584,27.1532 C236.2584,26.3691961 236.375999,25.64727 236.6112,24.9874 C236.846401,24.32753 237.169798,23.7591357 237.5814,23.2822 C237.993002,22.8052643 238.476464,22.4361346 239.0318,22.1748 C239.587136,21.9134654 240.191463,21.7828 240.8448,21.7828 C241.52427,21.7828 242.135131,21.9232653 242.6774,22.2042 C243.219669,22.4851347 243.673732,22.8705975 244.0396,23.3606 C244.405468,23.8506025 244.686399,24.4222634 244.8824,25.0756 C245.078401,25.7289366 245.1764,26.421463 245.1764,27.1532 Z M242.55,25.9772 C242.523867,25.7419988 242.4716,25.5166011 242.3932,25.301 C242.3148,25.0853989 242.200467,24.8894009 242.0502,24.713 C241.899933,24.5365991 241.713734,24.3961339 241.4916,24.2916 C241.269466,24.1870661 241.008135,24.1348 240.7076,24.1348 C240.211064,24.1348 239.819068,24.3111982 239.5316,24.664 C239.244132,25.0168018 239.074267,25.4545307 239.022,25.9772 L242.55,25.9772 Z M256.2112,27.2708 C256.2112,28.0417372 256.123001,28.7473301 255.9466,29.3876 C255.770199,30.0278699 255.512135,30.579931 255.1724,31.0438 C254.832665,31.507669 254.414536,31.8669987 253.918,32.1218 C253.421464,32.3766013 252.85307,32.504 252.2128,32.504 C251.755464,32.504 251.340602,32.4256008 250.9682,32.2688 C250.595798,32.1119992 250.285468,31.9225344 250.0372,31.7004 L250.0372,34.7188 L247.3324,36.0712 L247.3324,21.9984 L250.0372,21.9984 L250.0372,22.6452 C250.298535,22.4230656 250.602332,22.2238009 250.9486,22.0474 C251.294868,21.8709991 251.716264,21.7828 252.2128,21.7828 C252.761603,21.7828 253.277731,21.8873323 253.7612,22.0964 C254.244669,22.3054677 254.669332,22.6353977 255.0352,23.0862 C255.401068,23.5370023 255.688532,24.1086632 255.8976,24.8012 C256.106668,25.4937368 256.2112,26.3169286 256.2112,27.2708 Z M253.4672,27.3296 C253.4672,26.2711947 253.307135,25.5068024 252.987,25.0364 C252.666865,24.5659976 252.238936,24.3308 251.7032,24.3308 C251.285065,24.3308 250.951868,24.4091992 250.7036,24.566 C250.455332,24.7228008 250.233201,24.9318654 250.0372,25.1932 L250.0372,29.074 C250.468402,29.6620029 251.075996,29.956 251.86,29.956 C252.931472,29.956 253.4672,29.0805421 253.4672,27.3296 Z M267.1284,27.1532 C267.1284,27.9372039 267.010801,28.65913 266.7756,29.319 C266.540399,29.97887 266.217002,30.5439976 265.8054,31.0144 C265.393798,31.4848024 264.900536,31.8506654 264.3256,32.112 C263.750664,32.3733346 263.130003,32.504 262.4636,32.504 C261.797197,32.504 261.179803,32.3733346 260.6114,32.112 C260.042997,31.8506654 259.553002,31.4848024 259.1414,31.0144 C258.729798,30.5439976 258.406401,29.97887 258.1712,29.319 C257.935999,28.65913 257.8184,27.9372039 257.8184,27.1532 C257.8184,26.3691961 257.935999,25.64727 258.1712,24.9874 C258.406401,24.32753 258.729798,23.7591357 259.1414,23.2822 C259.553002,22.8052643 260.042997,22.4361346 260.6114,22.1748 C261.179803,21.9134654 261.797197,21.7828 262.4636,21.7828 C263.130003,21.7828 263.750664,21.9134654 264.3256,22.1748 C264.900536,22.4361346 265.393798,22.8052643 265.8054,23.2822 C266.217002,23.7591357 266.540399,24.32753 266.7756,24.9874 C267.010801,25.64727 267.1284,26.3691961 267.1284,27.1532 Z M264.3844,27.1532 C264.3844,26.3691961 264.227602,25.7126026 263.914,25.1834 C263.600398,24.6541974 263.116937,24.3896 262.4636,24.3896 C261.810263,24.3896 261.330068,24.6509307 261.023,25.1736 C260.715932,25.6962693 260.5624,26.3561293 260.5624,27.1532 C260.5624,27.9502707 260.715932,28.6068641 261.023,29.123 C261.330068,29.6391359 261.810263,29.8972 262.4636,29.8972 C262.790268,29.8972 263.074465,29.8220674 263.3162,29.6718 C263.557935,29.5215326 263.757199,29.3190013 263.914,29.0642 C264.070801,28.8093987 264.1884,28.5154017 264.2668,28.1822 C264.3452,27.8489983 264.3844,27.5060018 264.3844,27.1532 Z M275.2428,25.154 C275.020666,24.957999 274.778935,24.797934 274.5176,24.6738 C274.256265,24.549666 273.975335,24.4876 273.6748,24.4876 C273.413465,24.4876 273.175001,24.5202663 272.9594,24.5856 C272.743799,24.6509337 272.560867,24.7685325 272.4106,24.9384 C272.260333,25.1082675 272.142734,25.3369319 272.0578,25.6244 C271.972866,25.9118681 271.9304,26.2777311 271.9304,26.722 L271.9304,32.2884 L269.2256,32.2884 L269.2256,21.9984 L271.9304,21.9984 L271.9304,22.6844 C272.165601,22.4361321 272.456332,22.2238009 272.8026,22.0474 C273.148868,21.8709991 273.563731,21.7828 274.0472,21.7828 C274.491469,21.7828 274.873665,21.8579326 275.1938,22.0082 C275.513935,22.1584674 275.765466,22.3250658 275.9484,22.508 L275.2428,25.154 Z M283.71,31.8768 C283.487866,32.0597342 283.187335,32.2099994 282.8084,32.3276 C282.429465,32.4452006 282.030935,32.504 281.6128,32.504 C281.194665,32.504 280.815735,32.4288674 280.476,32.2786 C280.136265,32.1283326 279.848801,31.9160014 279.6136,31.6416 C279.378399,31.3671986 279.195467,31.0405352 279.0648,30.6616 C278.934133,30.2826648 278.8688,29.8645356 278.8688,29.4072 L278.8688,24.5464 L277.144,24.5464 L277.144,21.9984 L278.8688,21.9984 L278.8688,19.3524 L281.5736,18 L281.5736,21.9984 L284.0432,21.9984 L284.0432,24.5464 L281.5736,24.5464 L281.5736,28.682 C281.5736,29.1785358 281.658532,29.5084659 281.8284,29.6718 C281.998268,29.8351342 282.246532,29.9168 282.5732,29.9168 C282.821468,29.9168 283.053399,29.8580006 283.269,29.7404 C283.484601,29.6227994 283.762265,29.4202681 284.102,29.1328 L283.71,31.8768 Z" id="PatientConsentStatusReport" fill="#30588C"></path>
                    <path d="M6.94335938,9.46875 L5.18554688,9.46875 L5.18554688,5.8125 L1.7578125,5.8125 L1.7578125,9.46875 L0,9.46875 L0,0.9375 L1.7578125,0.9375 L1.7578125,4.39453125 L5.18554688,4.39453125 L5.18554688,0.9375 L6.94335938,0.9375 L6.94335938,9.46875 Z M11.2851562,9.5859375 C10.3554641,9.5859375 9.59863573,9.3007841 9.01464844,8.73046875 C8.43066114,8.1601534 8.13867188,7.40039537 8.13867188,6.45117188 L8.13867188,6.28710938 C8.13867188,5.65038744 8.26171752,5.0810572 8.5078125,4.57910156 C8.75390748,4.07714593 9.10253681,3.69043104 9.55371094,3.41894531 C10.0048851,3.14745958 10.5195284,3.01171875 11.0976562,3.01171875 C11.9648481,3.01171875 12.6474584,3.28515352 13.1455078,3.83203125 C13.6435572,4.37890898 13.8925781,5.15429186 13.8925781,6.15820312 L13.8925781,6.84960938 L9.85546875,6.84960938 C9.91015652,7.26367395 10.0751939,7.59570187 10.3505859,7.84570312 C10.6259779,8.09570438 10.9746073,8.22070312 11.3964844,8.22070312 C12.0488314,8.22070312 12.5585919,7.98437736 12.9257812,7.51171875 L13.7578125,8.44335938 C13.503905,8.80273617 13.1601584,9.08300681 12.7265625,9.28417969 C12.2929666,9.48535257 11.8125026,9.5859375 11.2851562,9.5859375 Z M11.0917969,4.3828125 C10.7558577,4.3828125 10.4833995,4.49609262 10.2744141,4.72265625 C10.0654286,4.94921988 9.93164092,5.27343539 9.87304688,5.6953125 L12.2285156,5.6953125 L12.2285156,5.56054688 C12.2207031,5.185545 12.1191416,4.89550884 11.9238281,4.69042969 C11.7285146,4.48535054 11.4511737,4.3828125 11.0917969,4.3828125 Z M18.5273438,9.46875 C18.4492184,9.31640549 18.3925783,9.12695426 18.3574219,8.90039062 C17.9472636,9.35742416 17.4140658,9.5859375 16.7578125,9.5859375 C16.1367156,9.5859375 15.6220724,9.4062518 15.2138672,9.046875 C14.805662,8.6874982 14.6015625,8.23437773 14.6015625,7.6875 C14.6015625,7.01562164 14.8505834,6.5000018 15.3486328,6.140625 C15.8466822,5.7812482 16.5664015,5.59960939 17.5078125,5.59570312 L18.2871094,5.59570312 L18.2871094,5.23242188 C18.2871094,4.93945166 18.2119148,4.705079 18.0615234,4.52929688 C17.9111321,4.35351475 17.6738297,4.265625 17.3496094,4.265625 C17.0644517,4.265625 16.8408211,4.33398369 16.6787109,4.47070312 C16.5166008,4.60742256 16.4355469,4.79492068 16.4355469,5.03320312 L14.7421875,5.03320312 C14.7421875,4.66601379 14.8554676,4.32617344 15.0820312,4.01367188 C15.3085949,3.70117031 15.6289042,3.45605558 16.0429688,3.27832031 C16.4570333,3.10058505 16.9218724,3.01171875 17.4375,3.01171875 C18.2187539,3.01171875 18.8388649,3.20800585 19.2978516,3.60058594 C19.7568382,3.99316603 19.9863281,4.54491832 19.9863281,5.25585938 L19.9863281,8.00390625 C19.9902344,8.60547176 20.0742179,9.06054533 20.2382812,9.36914062 L20.2382812,9.46875 L18.5273438,9.46875 Z M17.1269531,8.29101562 C17.3769544,8.29101562 17.6074208,8.23535212 17.8183594,8.12402344 C18.0292979,8.01269476 18.1855464,7.86328219 18.2871094,7.67578125 L18.2871094,6.5859375 L17.6542969,6.5859375 C16.8066364,6.5859375 16.355469,6.87890332 16.3007812,7.46484375 L16.2949219,7.56445312 C16.2949219,7.77539168 16.3691399,7.94921807 16.5175781,8.0859375 C16.6660164,8.22265693 16.8691393,8.29101562 17.1269531,8.29101562 Z M23.0742188,9.46875 L21.375,9.46875 L21.375,0.46875 L23.0742188,0.46875 L23.0742188,9.46875 Z M26.4960938,1.5703125 L26.4960938,3.12890625 L27.5800781,3.12890625 L27.5800781,4.37109375 L26.4960938,4.37109375 L26.4960938,7.53515625 C26.4960938,7.76953242 26.5410152,7.93749949 26.6308594,8.0390625 C26.7207036,8.14062551 26.8925769,8.19140625 27.1464844,8.19140625 C27.3339853,8.19140625 27.4999993,8.17773451 27.6445312,8.15039062 L27.6445312,9.43359375 C27.3124983,9.53515676 26.9707049,9.5859375 26.6191406,9.5859375 C25.4316347,9.5859375 24.826172,8.98633412 24.8027344,7.78710938 L24.8027344,4.37109375 L23.8769531,4.37109375 L23.8769531,3.12890625 L24.8027344,3.12890625 L24.8027344,1.5703125 L26.4960938,1.5703125 Z M30.1757812,3.8203125 C30.6250022,3.2812473 31.1894497,3.01171875 31.8691406,3.01171875 C33.2441475,3.01171875 33.9414062,3.81053889 33.9609375,5.40820312 L33.9609375,9.46875 L32.2675781,9.46875 L32.2675781,5.45507812 C32.2675781,5.09179506 32.1894539,4.82324306 32.0332031,4.64941406 C31.8769523,4.47558507 31.6171893,4.38867188 31.2539062,4.38867188 C30.75781,4.38867188 30.3984386,4.58007621 30.1757812,4.96289062 L30.1757812,9.46875 L28.4824219,9.46875 L28.4824219,0.46875 L30.1757812,0.46875 L30.1757812,3.8203125 Z M40.2070312,9.46875 L38.4492188,9.46875 L38.4492188,0.9375 L40.2070312,0.9375 L40.2070312,9.46875 Z M43.2832031,3.12890625 L43.3359375,3.86132812 C43.7890648,3.29491904 44.3964806,3.01171875 45.1582031,3.01171875 C45.8300815,3.01171875 46.3300765,3.2089824 46.6582031,3.60351562 C46.9863298,3.99804885 47.1542968,4.5878867 47.1621094,5.37304688 L47.1621094,9.46875 L45.46875,9.46875 L45.46875,5.4140625 C45.46875,5.0546857 45.3906258,4.79394612 45.234375,4.63183594 C45.0781242,4.46972575 44.8183612,4.38867188 44.4550781,4.38867188 C43.9785132,4.38867188 43.6210949,4.59179484 43.3828125,4.99804688 L43.3828125,9.46875 L41.6894531,9.46875 L41.6894531,3.12890625 L43.2832031,3.12890625 Z M48.9082031,9.46875 L48.9082031,4.37109375 L47.9648438,4.37109375 L47.9648438,3.12890625 L48.9082031,3.12890625 L48.9082031,2.58984375 C48.9082031,1.8789027 49.1123026,1.3271504 49.5205078,0.934570312 C49.928713,0.541990225 50.4999963,0.345703125 51.234375,0.345703125 C51.4687512,0.345703125 51.7558577,0.384765234 52.0957031,0.462890625 L52.078125,1.77539062 C51.9374993,1.7402342 51.765626,1.72265625 51.5625,1.72265625 C50.9257781,1.72265625 50.6074219,2.02148139 50.6074219,2.61914062 L50.6074219,3.12890625 L51.8671875,3.12890625 L51.8671875,4.37109375 L50.6074219,4.37109375 L50.6074219,9.46875 L48.9082031,9.46875 Z M52.4824219,6.24023438 C52.4824219,5.61132498 52.6035144,5.05078371 52.8457031,4.55859375 C53.0878918,4.06640379 53.4365212,3.68554822 53.8916016,3.41601562 C54.346682,3.14648303 54.874997,3.01171875 55.4765625,3.01171875 C56.3320355,3.01171875 57.0302707,3.27343488 57.5712891,3.796875 C58.1123074,4.32031512 58.4140622,5.03124551 58.4765625,5.9296875 L58.4882812,6.36328125 C58.4882812,7.33594236 58.2167996,8.116208 57.6738281,8.70410156 C57.1308567,9.29199513 56.4023483,9.5859375 55.4882812,9.5859375 C54.5742142,9.5859375 53.8447293,9.29297168 53.2998047,8.70703125 C52.7548801,8.12109082 52.4824219,7.32422379 52.4824219,6.31640625 L52.4824219,6.24023438 Z M54.1757812,6.36328125 C54.1757812,6.96484676 54.2890614,7.4248031 54.515625,7.74316406 C54.7421886,8.06152503 55.0664041,8.22070312 55.4882812,8.22070312 C55.8984396,8.22070312 56.2187488,8.06347813 56.4492188,7.74902344 C56.6796887,7.43456874 56.7949219,6.93164408 56.7949219,6.24023438 C56.7949219,5.65038768 56.6796887,5.193361 56.4492188,4.86914062 C56.2187488,4.54492025 55.8945333,4.3828125 55.4765625,4.3828125 C55.0624979,4.3828125 54.7421886,4.5439437 54.515625,4.86621094 C54.2890614,5.18847817 54.1757812,5.68749662 54.1757812,6.36328125 Z M63.09375,4.71679688 C62.8632801,4.68554672 62.6601571,4.66992188 62.484375,4.66992188 C61.8437468,4.66992188 61.4238291,4.88671658 61.2246094,5.3203125 L61.2246094,9.46875 L59.53125,9.46875 L59.53125,3.12890625 L61.1308594,3.12890625 L61.1777344,3.88476562 C61.5175798,3.30273146 61.9882782,3.01171875 62.5898438,3.01171875 C62.7773447,3.01171875 62.9531242,3.03710912 63.1171875,3.08789062 L63.09375,4.71679688 Z M65.4960938,3.12890625 L65.5488281,3.83789062 C65.9980491,3.28710662 66.6054649,3.01171875 67.3710938,3.01171875 C68.1875041,3.01171875 68.7480454,3.33398115 69.0527344,3.97851562 C69.4980491,3.33398115 70.1328084,3.01171875 70.9570312,3.01171875 C71.6445347,3.01171875 72.1562483,3.21191206 72.4921875,3.61230469 C72.8281267,4.01269731 72.9960938,4.61523035 72.9960938,5.41992188 L72.9960938,9.46875 L71.296875,9.46875 L71.296875,5.42578125 C71.296875,5.06640445 71.2265632,4.80371177 71.0859375,4.63769531 C70.9453118,4.47167886 70.6972674,4.38867188 70.3417969,4.38867188 C69.8339818,4.38867188 69.4824229,4.63085695 69.2871094,5.11523438 L69.2929688,9.46875 L67.5996094,9.46875 L67.5996094,5.43164062 C67.5996094,5.06445129 67.5273445,4.79882895 67.3828125,4.63476562 C67.2382805,4.4707023 66.9921892,4.38867188 66.6445312,4.38867188 C66.1640601,4.38867188 65.8164073,4.58788863 65.6015625,4.98632812 L65.6015625,9.46875 L63.9082031,9.46875 L63.9082031,3.12890625 L65.4960938,3.12890625 Z M77.9707031,9.46875 C77.8925777,9.31640549 77.8359377,9.12695426 77.8007812,8.90039062 C77.3906229,9.35742416 76.8574252,9.5859375 76.2011719,9.5859375 C75.580075,9.5859375 75.0654317,9.4062518 74.6572266,9.046875 C74.2490214,8.6874982 74.0449219,8.23437773 74.0449219,7.6875 C74.0449219,7.01562164 74.2939428,6.5000018 74.7919922,6.140625 C75.2900416,5.7812482 76.0097609,5.59960939 76.9511719,5.59570312 L77.7304688,5.59570312 L77.7304688,5.23242188 C77.7304688,4.93945166 77.6552742,4.705079 77.5048828,4.52929688 C77.3544914,4.35351475 77.1171891,4.265625 76.7929688,4.265625 C76.5078111,4.265625 76.2841805,4.33398369 76.1220703,4.47070312 C75.9599601,4.60742256 75.8789062,4.79492068 75.8789062,5.03320312 L74.1855469,5.03320312 C74.1855469,4.66601379 74.298827,4.32617344 74.5253906,4.01367188 C74.7519543,3.70117031 75.0722636,3.45605558 75.4863281,3.27832031 C75.9003927,3.10058505 76.3652318,3.01171875 76.8808594,3.01171875 C77.6621133,3.01171875 78.2822243,3.20800585 78.7412109,3.60058594 C79.2001976,3.99316603 79.4296875,4.54491832 79.4296875,5.25585938 L79.4296875,8.00390625 C79.4335938,8.60547176 79.5175773,9.06054533 79.6816406,9.36914062 L79.6816406,9.46875 L77.9707031,9.46875 Z M76.5703125,8.29101562 C76.8203137,8.29101562 77.0507802,8.23535212 77.2617188,8.12402344 C77.4726573,8.01269476 77.6289057,7.86328219 77.7304688,7.67578125 L77.7304688,6.5859375 L77.0976562,6.5859375 C76.2499958,6.5859375 75.7988284,6.87890332 75.7441406,7.46484375 L75.7382812,7.56445312 C75.7382812,7.77539168 75.8124993,7.94921807 75.9609375,8.0859375 C76.1093757,8.22265693 76.3124987,8.29101562 76.5703125,8.29101562 Z M82.7578125,1.5703125 L82.7578125,3.12890625 L83.8417969,3.12890625 L83.8417969,4.37109375 L82.7578125,4.37109375 L82.7578125,7.53515625 C82.7578125,7.76953242 82.8027339,7.93749949 82.8925781,8.0390625 C82.9824223,8.14062551 83.1542956,8.19140625 83.4082031,8.19140625 C83.5957041,8.19140625 83.761718,8.17773451 83.90625,8.15039062 L83.90625,9.43359375 C83.5742171,9.53515676 83.2324236,9.5859375 82.8808594,9.5859375 C81.6933534,9.5859375 81.0878907,8.98633412 81.0644531,7.78710938 L81.0644531,4.37109375 L80.1386719,4.37109375 L80.1386719,3.12890625 L81.0644531,3.12890625 L81.0644531,1.5703125 L82.7578125,1.5703125 Z M86.5722656,9.46875 L84.8730469,9.46875 L84.8730469,3.12890625 L86.5722656,3.12890625 L86.5722656,9.46875 Z M84.7734375,1.48828125 C84.7734375,1.23437373 84.8583976,1.02539145 85.0283203,0.861328125 C85.198243,0.697264805 85.429686,0.615234375 85.7226562,0.615234375 C86.0117202,0.615234375 86.2421866,0.697264805 86.4140625,0.861328125 C86.5859384,1.02539145 86.671875,1.23437373 86.671875,1.48828125 C86.671875,1.74609504 86.5849618,1.95703043 86.4111328,2.12109375 C86.2373038,2.28515707 86.0078139,2.3671875 85.7226562,2.3671875 C85.4374986,2.3671875 85.2080087,2.28515707 85.0341797,2.12109375 C84.8603507,1.95703043 84.7734375,1.74609504 84.7734375,1.48828125 Z M87.703125,6.24023438 C87.703125,5.61132498 87.8242175,5.05078371 88.0664062,4.55859375 C88.308595,4.06640379 88.6572243,3.68554822 89.1123047,3.41601562 C89.5673851,3.14648303 90.0957001,3.01171875 90.6972656,3.01171875 C91.5527387,3.01171875 92.2509739,3.27343488 92.7919922,3.796875 C93.3330105,4.32031512 93.6347653,5.03124551 93.6972656,5.9296875 L93.7089844,6.36328125 C93.7089844,7.33594236 93.4375027,8.116208 92.8945312,8.70410156 C92.3515598,9.29199513 91.6230514,9.5859375 90.7089844,9.5859375 C89.7949173,9.5859375 89.0654324,9.29297168 88.5205078,8.70703125 C87.9755832,8.12109082 87.703125,7.32422379 87.703125,6.31640625 L87.703125,6.24023438 Z M89.3964844,6.36328125 C89.3964844,6.96484676 89.5097645,7.4248031 89.7363281,7.74316406 C89.9628918,8.06152503 90.2871073,8.22070312 90.7089844,8.22070312 C91.1191427,8.22070312 91.439452,8.06347813 91.6699219,7.74902344 C91.9003918,7.43456874 92.015625,6.93164408 92.015625,6.24023438 C92.015625,5.65038768 91.9003918,5.193361 91.6699219,4.86914062 C91.439452,4.54492025 91.1152365,4.3828125 90.6972656,4.3828125 C90.2832011,4.3828125 89.9628918,4.5439437 89.7363281,4.86621094 C89.5097645,5.18847817 89.3964844,5.68749662 89.3964844,6.36328125 Z M96.3105469,3.12890625 L96.3632812,3.86132812 C96.8164085,3.29491904 97.4238243,3.01171875 98.1855469,3.01171875 C98.8574252,3.01171875 99.3574202,3.2089824 99.6855469,3.60351562 C100.013674,3.99804885 100.181641,4.5878867 100.189453,5.37304688 L100.189453,9.46875 L98.4960938,9.46875 L98.4960938,5.4140625 C98.4960938,5.0546857 98.4179695,4.79394612 98.2617188,4.63183594 C98.105468,4.46972575 97.8457049,4.38867188 97.4824219,4.38867188 C97.005857,4.38867188 96.6484387,4.59179484 96.4101562,4.99804688 L96.4101562,9.46875 L94.7167969,9.46875 L94.7167969,3.12890625 L96.3105469,3.12890625 Z M109.705078,5.77148438 L106.330078,5.77148438 L106.330078,8.05664062 L110.291016,8.05664062 L110.291016,9.46875 L104.572266,9.46875 L104.572266,0.9375 L110.279297,0.9375 L110.279297,2.36132812 L106.330078,2.36132812 L106.330078,4.39453125 L109.705078,4.39453125 L109.705078,5.77148438 Z M113.625,5.02148438 L114.691406,3.12890625 L116.501953,3.12890625 L114.697266,6.234375 L116.578125,9.46875 L114.761719,9.46875 L113.630859,7.4765625 L112.505859,9.46875 L110.683594,9.46875 L112.564453,6.234375 L110.765625,3.12890625 L112.582031,3.12890625 L113.625,5.02148438 Z M119.953125,8.22070312 C120.265627,8.22070312 120.51953,8.13476648 120.714844,7.96289062 C120.910157,7.79101477 121.011719,7.56250143 121.019531,7.27734375 L122.607422,7.27734375 C122.603516,7.7070334 122.486329,8.10058415 122.255859,8.45800781 C122.025389,8.81543147 121.709963,9.09277245 121.30957,9.29003906 C120.909178,9.48730567 120.466799,9.5859375 119.982422,9.5859375 C119.076167,9.5859375 118.361331,9.29785444 117.837891,8.72167969 C117.314451,8.14550493 117.052734,7.34961445 117.052734,6.33398438 L117.052734,6.22265625 C117.052734,5.24608887 117.312497,4.46679979 117.832031,3.88476562 C118.351565,3.30273146 119.064449,3.01171875 119.970703,3.01171875 C120.763676,3.01171875 121.399412,3.23730243 121.87793,3.68847656 C122.356448,4.13965069 122.599609,4.74023063 122.607422,5.49023438 L121.019531,5.49023438 C121.011719,5.16210773 120.910157,4.89550884 120.714844,4.69042969 C120.51953,4.48535054 120.26172,4.3828125 119.941406,4.3828125 C119.546873,4.3828125 119.249024,4.52636575 119.047852,4.81347656 C118.846679,5.10058737 118.746094,5.56640303 118.746094,6.2109375 L118.746094,6.38671875 C118.746094,7.03906576 118.845702,7.50781107 119.044922,7.79296875 C119.244142,8.07812643 119.546873,8.22070312 119.953125,8.22070312 Z M125.226562,3.8203125 C125.675783,3.2812473 126.240231,3.01171875 126.919922,3.01171875 C128.294929,3.01171875 128.992187,3.81053889 129.011719,5.40820312 L129.011719,9.46875 L127.318359,9.46875 L127.318359,5.45507812 C127.318359,5.09179506 127.240235,4.82324306 127.083984,4.64941406 C126.927734,4.47558507 126.667971,4.38867188 126.304688,4.38867188 C125.808591,4.38867188 125.44922,4.58007621 125.226562,4.96289062 L125.226562,9.46875 L123.533203,9.46875 L123.533203,0.46875 L125.226562,0.46875 L125.226562,3.8203125 Z M133.962891,9.46875 C133.884765,9.31640549 133.828125,9.12695426 133.792969,8.90039062 C133.38281,9.35742416 132.849613,9.5859375 132.193359,9.5859375 C131.572263,9.5859375 131.057619,9.4062518 130.649414,9.046875 C130.241209,8.6874982 130.037109,8.23437773 130.037109,7.6875 C130.037109,7.01562164 130.28613,6.5000018 130.78418,6.140625 C131.282229,5.7812482 132.001948,5.59960939 132.943359,5.59570312 L133.722656,5.59570312 L133.722656,5.23242188 C133.722656,4.93945166 133.647462,4.705079 133.49707,4.52929688 C133.346679,4.35351475 133.109377,4.265625 132.785156,4.265625 C132.499999,4.265625 132.276368,4.33398369 132.114258,4.47070312 C131.952148,4.60742256 131.871094,4.79492068 131.871094,5.03320312 L130.177734,5.03320312 C130.177734,4.66601379 130.291014,4.32617344 130.517578,4.01367188 C130.744142,3.70117031 131.064451,3.45605558 131.478516,3.27832031 C131.89258,3.10058505 132.357419,3.01171875 132.873047,3.01171875 C133.654301,3.01171875 134.274412,3.20800585 134.733398,3.60058594 C135.192385,3.99316603 135.421875,4.54491832 135.421875,5.25585938 L135.421875,8.00390625 C135.425781,8.60547176 135.509765,9.06054533 135.673828,9.36914062 L135.673828,9.46875 L133.962891,9.46875 Z M132.5625,8.29101562 C132.812501,8.29101562 133.042968,8.23535212 133.253906,8.12402344 C133.464845,8.01269476 133.621093,7.86328219 133.722656,7.67578125 L133.722656,6.5859375 L133.089844,6.5859375 C132.242183,6.5859375 131.791016,6.87890332 131.736328,7.46484375 L131.730469,7.56445312 C131.730469,7.77539168 131.804687,7.94921807 131.953125,8.0859375 C132.101563,8.22265693 132.304686,8.29101562 132.5625,8.29101562 Z M138.28125,3.12890625 L138.333984,3.86132812 C138.787112,3.29491904 139.394527,3.01171875 140.15625,3.01171875 C140.828128,3.01171875 141.328123,3.2089824 141.65625,3.60351562 C141.984377,3.99804885 142.152344,4.5878867 142.160156,5.37304688 L142.160156,9.46875 L140.466797,9.46875 L140.466797,5.4140625 C140.466797,5.0546857 140.388673,4.79394612 140.232422,4.63183594 C140.076171,4.46972575 139.816408,4.38867188 139.453125,4.38867188 C138.97656,4.38867188 138.619142,4.59179484 138.380859,4.99804688 L138.380859,9.46875 L136.6875,9.46875 L136.6875,3.12890625 L138.28125,3.12890625 Z M143.197266,6.25195312 C143.197266,5.27929201 143.428709,4.49609672 143.891602,3.90234375 C144.354495,3.30859078 144.978512,3.01171875 145.763672,3.01171875 C146.458988,3.01171875 146.999998,3.24999762 147.386719,3.7265625 L147.457031,3.12890625 L148.992188,3.12890625 L148.992188,9.2578125 C148.992188,9.81250277 148.866212,10.2949198 148.614258,10.7050781 C148.362303,11.1152364 148.007815,11.4277333 147.550781,11.6425781 C147.093748,11.8574229 146.558597,11.9648438 145.945312,11.9648438 C145.480466,11.9648438 145.027346,11.8720712 144.585938,11.6865234 C144.144529,11.5009756 143.810548,11.2617202 143.583984,10.96875 L144.333984,9.9375 C144.755861,10.4101586 145.267575,10.6464844 145.869141,10.6464844 C146.318362,10.6464844 146.667968,10.5263684 146.917969,10.2861328 C147.16797,10.0458972 147.292969,9.70508033 147.292969,9.26367188 L147.292969,8.92382812 C146.902342,9.36523658 146.388675,9.5859375 145.751953,9.5859375 C144.990231,9.5859375 144.374026,9.28808892 143.90332,8.69238281 C143.432615,8.09667671 143.197266,7.30664555 143.197266,6.32226562 L143.197266,6.25195312 Z M144.890625,6.375 C144.890625,6.94922162 145.005858,7.39941243 145.236328,7.72558594 C145.466798,8.05175944 145.783201,8.21484375 146.185547,8.21484375 C146.701174,8.21484375 147.070311,8.02148631 147.292969,7.63476562 L147.292969,4.96875 C147.066405,4.58202932 146.701174,4.38867188 146.197266,4.38867188 C145.791014,4.38867188 145.471681,4.55468584 145.239258,4.88671875 C145.006835,5.21875166 144.890625,5.71484045 144.890625,6.375 Z M153.210938,9.5859375 C152.281245,9.5859375 151.524417,9.3007841 150.94043,8.73046875 C150.356442,8.1601534 150.064453,7.40039537 150.064453,6.45117188 L150.064453,6.28710938 C150.064453,5.65038744 150.187499,5.0810572 150.433594,4.57910156 C150.679689,4.07714593 151.028318,3.69043104 151.479492,3.41894531 C151.930666,3.14745958 152.44531,3.01171875 153.023438,3.01171875 C153.890629,3.01171875 154.57324,3.28515352 155.071289,3.83203125 C155.569338,4.37890898 155.818359,5.15429186 155.818359,6.15820312 L155.818359,6.84960938 L151.78125,6.84960938 C151.835938,7.26367395 152.000975,7.59570187 152.276367,7.84570312 C152.551759,8.09570438 152.900389,8.22070312 153.322266,8.22070312 C153.974613,8.22070312 154.484373,7.98437736 154.851562,7.51171875 L155.683594,8.44335938 C155.429686,8.80273617 155.08594,9.08300681 154.652344,9.28417969 C154.218748,9.48535257 153.738284,9.5859375 153.210938,9.5859375 Z M153.017578,4.3828125 C152.681639,4.3828125 152.409181,4.49609262 152.200195,4.72265625 C151.99121,4.94921988 151.857422,5.27343539 151.798828,5.6953125 L154.154297,5.6953125 L154.154297,5.56054688 C154.146484,5.185545 154.044923,4.89550884 153.849609,4.69042969 C153.654296,4.48535054 153.376955,4.3828125 153.017578,4.3828125 Z M159.84375,6 C159.84375,5.10546428 159.962889,4.25391029 160.201172,3.4453125 C160.439454,2.63671471 160.791013,1.92090155 161.255859,1.29785156 C161.720705,0.674801572 162.224607,0.242188711 162.767578,0 L163.095703,0.9140625 C162.525388,1.33593961 162.08008,1.98827684 161.759766,2.87109375 C161.439452,3.75391066 161.279297,4.78515035 161.279297,5.96484375 L161.279297,6.14648437 C161.279297,7.33008404 161.437498,8.36522994 161.753906,9.25195312 C162.070314,10.1386763 162.517575,10.8007791 163.095703,11.2382812 L162.767578,12.1347656 C162.236325,11.8964832 161.741213,11.475589 161.282227,10.8720703 C160.82324,10.2685517 160.472657,9.57226957 160.230469,8.78320312 C159.98828,7.99413668 159.859375,7.16992617 159.84375,6.31054688 L159.84375,6 Z M171.035156,9.46875 L169.277344,9.46875 L169.277344,5.8125 L165.849609,5.8125 L165.849609,9.46875 L164.091797,9.46875 L164.091797,0.9375 L165.849609,0.9375 L165.849609,4.39453125 L169.277344,4.39453125 L169.277344,0.9375 L171.035156,0.9375 L171.035156,9.46875 Z M174.439453,9.46875 L172.681641,9.46875 L172.681641,0.9375 L174.439453,0.9375 L174.439453,9.46875 Z M181.201172,5.77148438 L177.826172,5.77148438 L177.826172,8.05664062 L181.787109,8.05664062 L181.787109,9.46875 L176.068359,9.46875 L176.068359,0.9375 L181.775391,0.9375 L181.775391,2.36132812 L177.826172,2.36132812 L177.826172,4.39453125 L181.201172,4.39453125 L181.201172,5.77148438 Z M185.625,6.13476562 C185.625,7.01758254 185.498048,7.86718342 185.244141,8.68359375 C184.990233,9.5 184.625002,10.2207 184.148438,10.8457031 C183.671873,11.4707062 183.162112,11.9003895 182.619141,12.1347656 L182.291016,11.2382812 C182.845706,10.8203104 183.283202,10.1757856 183.603516,9.3046875 C183.92383,8.43358939 184.089844,7.43164629 184.101562,6.29882812 L184.101562,5.98828125 C184.101562,4.82030666 183.942384,3.79102008 183.624023,2.90039062 C183.305662,2.00976117 182.861331,1.3417991 182.291016,0.896484375 L182.619141,0 C183.150393,0.230469902 183.651365,0.648434473 184.12207,1.25390625 C184.592776,1.85937803 184.958007,2.5644491 185.217773,3.36914063 C185.47754,4.17383215 185.613281,5.00780818 185.625,5.87109375 L185.625,6.13476562 Z" id="HealthInformationExchange(HIE)" fill="#294C86"></path>
                </g>
            </g>
        </g>
    </g>
</svg>